<svg xmlns="http://www.w3.org/2000/svg" viewBox="0 0 48 48" aria-hidden="true">
  <path fill="#EA4335" d="M24 9.5c3.5 0 6.6 1.2 9.1 3.5l6.8-6.8C35.8 2.4 30.3 0 24 0 14.6 0 6.5 5.4 2.6 13.3l7.9 6.1C12.4 13.6 17.7 9.5 24 9.5z"/>
  <path fill="#4285F4" d="M47.5 24.5c0-1.7-.2-3.3-.5-4.9H24v9.3h13.1c-.6 3-2.3 5.6-4.8 7.3l7.4 5.7c4.3-4 7.8-9.8 7.8-17.4z"/>
  <path fill="#FBBC05" d="M10.5 28.6c-.5-1.5-.8-3-.8-4.6s.3-3.1.8-4.6l-7.9-6.1C1 16.5 0 20.1 0 24s1 7.5 2.6 10.7l7.9-6.1z"/>
  <path fill="#34A853" d="M24 48c6.3 0 11.6-2.1 15.5-5.7l-7.4-5.7c-2.1 1.4-4.7 2.2-8.1 2.2-6.3 0-11.6-4.1-13.5-9.8l-7.9 6.1C6.5 42.6 14.6 48 24 48z"/>
</svg>
